<?xml version="1.0" standalone="no"?>
<!DOCTYPE svg PUBLIC "-//W3C//DTD SVG 20010904//EN"
 "http://www.w3.org/TR/2001/REC-SVG-20010904/DTD/svg10.dtd">
<svg version="1.0" xmlns="http://www.w3.org/2000/svg"
 width="100.000000pt" height="150.000000pt" viewBox="0 0 1051.000000 1198.000000"
 preserveAspectRatio="xMidYMid meet">
<metadata>
Created by potrace 1.16, written by Peter Selinger 2001-2019
</metadata>
<g transform="translate(0.000000,1198.000000) scale(0.100000,-0.100000)"
fill="#000000" stroke="none">
<path d="M2924 10692 c-1232 -708 -2252 -1295 -2268 -1305 -90 -60 -89 -203 4
-268 14 -9 662 -388 1440 -841 l1415 -823 60 0 60 0 1490 864 c820 475 1507
871 1528 879 30 12 47 13 75 5 20 -5 833 -470 1807 -1031 1614 -933 1773
-1022 1813 -1022 58 0 108 25 138 69 l24 36 0 861 0 861 -23 34 c-19 28 -475
294 -2577 1501 l-2555 1467 -95 0 -95 0 -2241 -1287z"/>
<path d="M125 8841 c-45 -11 -74 -32 -98 -71 -20 -33 -22 -49 -25 -235 -1
-110 1 -847 5 -1637 8 -1434 8 -1437 29 -1465 14 -19 579 -353 1705 -1006
l1684 -978 55 3 c52 4 129 47 1595 897 847 491 1557 904 1578 917 54 35 77 78
77 144 0 30 -61 699 -136 1485 -146 1543 -139 1484 -202 1530 -20 15 -43 20
-92 20 l-65 0 -1294 -754 c-712 -415 -1311 -760 -1331 -767 -26 -9 -48 -10
-69 -4 -17 5 -770 438 -1673 963 -1022 593 -1656 956 -1678 960 -19 3 -48 2
-65 -2z"/>
<path d="M7010 8438 c-34 -17 -51 -35 -68 -69 l-23 -47 136 -1448 c123 -1306
139 -1453 159 -1493 21 -44 34 -52 1551 -933 l1529 -888 56 0 c42 0 64 6 91
24 74 51 69 -64 69 1476 0 1251 -2 1385 -16 1416 -11 24 -38 48 -88 78 -146
90 -3231 1879 -3263 1892 -46 20 -82 17 -133 -8z"/>
<path d="M6920 4892 c-19 -11 -793 -460 -1720 -998 -1560 -905 -1688 -978
-1730 -978 -41 1 -172 75 -1649 934 -1580 919 -1605 933 -1657 933 -61 0 -110
-27 -141 -78 -17 -29 -18 -67 -14 -850 4 -928 -2 -864 85 -920 28 -17 1187
-684 2576 -1481 2508 -1440 2525 -1449 2585 -1452 l60 -3 2450 1406 c1348 774
2458 1414 2469 1423 35 32 48 72 44 132 -4 62 -25 98 -73 126 -16 10 -727 423
-1580 918 -1523 883 -1551 899 -1610 903 -46 3 -68 0 -95 -15z"/>
</g>
</svg>
