<?xml version="1.0" standalone="no"?>
<!DOCTYPE svg PUBLIC "-//W3C//DTD SVG 20010904//EN"
 "http://www.w3.org/TR/2001/REC-SVG-20010904/DTD/svg10.dtd">
<svg version="1.0" xmlns="http://www.w3.org/2000/svg"
 width="300.000000pt" height="150.000000pt" viewBox="0 0 2953.000000 1203.000000"
 preserveAspectRatio="xMidYMid meet">
<metadata>
Created by potrace 1.16, written by Peter Selinger 2001-2019
</metadata>
<g transform="translate(0.000000,1203.000000) scale(0.100000,-0.100000)"
fill="#000000" stroke="none">
<path d="M5200 11997 c-43 -16 -4547 -2602 -4574 -2625 -60 -53 -60 -182 0
-233 19 -17 2790 -1631 2866 -1670 87 -44 -7 -93 1631 855 824 478 1511 873
1527 879 21 8 41 8 67 1 21 -5 832 -468 1803 -1029 1931 -1114 1811 -1050
1899 -1006 23 12 51 36 61 54 19 31 20 56 20 892 0 836 -1 861 -20 892 -10 18
-36 43 -57 57 -21 13 -1180 679 -2575 1480 -1753 1006 -2549 1457 -2575 1461
-21 3 -54 -1 -73 -8z"/>
<path d="M108 8840 c-37 -11 -68 -34 -89 -67 -18 -27 -19 -89 -19 -1658 l0
-1630 23 -39 c20 -36 159 -118 1702 -1015 l1680 -976 60 0 60 0 1565 908 c861
500 1577 920 1591 933 55 52 59 -22 -92 1568 -152 1596 -142 1518 -210 1564
-28 19 -44 23 -94 20 -59 -3 -72 -10 -1340 -749 -704 -410 -1294 -753 -1312
-763 -80 -41 28 -99 -1751 936 -900 523 -1653 957 -1672 964 -40 15 -63 16
-102 4z"/>
<path d="M13540 6255 l0 -2216 993 4 c1079 4 1075 4 1347 64 571 126 883 418
955 893 19 125 19 350 0 470 -64 392 -312 659 -742 797 l-112 36 128 62 c300
146 481 320 569 545 77 197 89 476 31 710 -28 113 -105 271 -177 361 -195 246
-523 397 -1007 465 -104 15 -246 18 -1052 21 l-933 4 0 -2216z m1885 1587
c194 -44 325 -110 427 -213 111 -112 162 -245 162 -419 -1 -298 -182 -501
-526 -592 -80 -21 -105 -22 -640 -25 l-558 -4 0 641 0 642 523 -5 c484 -4 529
-5 612 -25z m-12 -1887 c344 -52 561 -207 644 -459 22 -69 26 -99 26 -201 0
-104 -3 -130 -27 -198 -53 -157 -152 -266 -309 -342 -208 -100 -334 -115 -968
-115 l-489 0 0 665 0 665 513 0 c400 0 533 -3 610 -15z"/>
<path d="M7002 8444 c-40 -21 -69 -56 -81 -100 -14 -50 261 -2935 283 -2968 8
-14 30 -36 48 -49 18 -13 706 -415 1528 -892 1436 -834 1497 -869 1553 -873
49 -4 63 -1 96 21 77 51 71 -69 71 1485 l0 1389 -22 33 c-18 26 -362 230
-1683 998 -1510 878 -1665 966 -1710 969 -33 2 -61 -2 -83 -13z"/>
<path d="M18665 7260 c-307 -35 -549 -121 -733 -260 -202 -152 -316 -357 -352
-631 -5 -41 -10 -77 -10 -81 0 -5 145 -8 323 -8 l323 0 17 53 c57 178 210 317
417 377 103 30 324 38 430 16 171 -36 292 -124 355 -259 42 -89 55 -165 55
-328 l0 -126 -61 -7 c-34 -3 -123 -6 -198 -6 -791 -1 -1254 -116 -1533 -379
-155 -145 -235 -325 -260 -583 -20 -204 11 -391 92 -555 174 -354 587 -544
1091 -503 400 32 660 195 861 539 21 36 38 61 38 56 0 -20 51 -491 56 -512 l4
-23 315 0 316 0 -3 1223 c-3 1217 -3 1222 -25 1298 -50 177 -119 294 -237 406
-150 143 -331 223 -621 274 -137 24 -519 35 -660 19z m825 -1942 c0 -290 -5
-322 -61 -429 -40 -77 -178 -218 -261 -267 -250 -148 -513 -171 -736 -67 -199
93 -306 298 -273 523 29 204 168 349 406 426 172 55 333 73 683 75 l242 1 0
-262z"/>
<path d="M25767 7254 c-207 -37 -395 -139 -536 -289 -79 -86 -133 -165 -192
-288 l-49 -102 0 318 0 317 -365 0 -365 0 0 -1585 0 -1585 380 0 379 0 3 998
3 997 28 82 c69 206 228 343 467 404 142 36 513 38 604 3 14 -6 16 29 16 359
l0 365 -50 11 c-69 15 -228 12 -323 -5z"/>
<path d="M27790 7256 c-340 -50 -615 -186 -828 -411 -226 -239 -362 -552 -413
-955 -16 -123 -16 -448 0 -570 53 -403 192 -712 426 -945 201 -201 442 -321
751 -376 168 -30 450 -30 618 0 607 108 1012 519 1140 1161 91 454 40 955
-135 1329 -188 401 -528 663 -976 752 -139 27 -442 35 -583 15z m480 -593
c108 -37 182 -86 264 -174 228 -246 318 -788 211 -1269 -47 -216 -117 -352
-245 -480 -137 -137 -257 -184 -465 -184 -134 0 -212 16 -310 64 -174 85 -291
235 -369 471 -48 145 -67 266 -73 465 -18 545 140 929 442 1074 113 54 194 70
340 66 102 -2 133 -8 205 -33z"/>
<path d="M20601 7158 c11 -29 288 -716 615 -1526 327 -810 594 -1479 594
-1486 0 -33 -103 -295 -134 -342 -67 -100 -166 -159 -318 -190 -69 -14 -124
-16 -340 -12 l-258 5 0 -244 0 -244 43 -18 c124 -53 294 -75 546 -68 168 4
210 8 292 30 174 46 312 129 445 269 100 106 180 226 265 398 52 105 1365
3385 1387 3463 4 16 -18 17 -365 17 l-370 0 -413 -1105 c-228 -608 -416 -1105
-419 -1105 -4 0 -193 497 -421 1105 l-415 1105 -377 0 -378 0 21 -52z"/>
<path d="M6961 4913 c-14 -3 -795 -452 -1735 -997 -941 -546 -1723 -996 -1738
-1000 -15 -3 -44 0 -65 7 -21 7 -744 424 -1608 927 -863 502 -1588 920 -1609
927 -62 22 -113 9 -163 -42 l-43 -42 0 -828 c0 -816 0 -828 21 -864 11 -20 34
-46 52 -58 18 -11 1175 -677 2572 -1479 2497 -1433 2541 -1458 2600 -1461 l60
-4 2450 1406 c1540 884 2462 1418 2481 1439 53 55 53 153 1 210 -35 39 -3176
1854 -3217 1859 -19 3 -46 3 -59 0z"/>
</g>
</svg>
